<svg width="172" height="47" viewBox="0 0 172 47" fill="none" xmlns="http://www.w3.org/2000/svg">
<path d="M4.625 0C6.89583 0.0833333 9.72917 0.145833 13.125 0.1875C16.5208 0.229167 20.5104 0.25 25.0938 0.25C29.6771 0.25 33.6667 0.229167 37.0625 0.1875C40.4792 0.145833 43.3333 0.0833333 45.625 0C45.75 0.895833 45.9062 1.76042 46.0938 2.59375C46.2812 3.40625 46.5938 4.3125 47.0312 5.3125L47.9688 7.4375L50.25 11.875C50.1042 12.2083 49.7396 12.4896 49.1562 12.7188C48.4479 11.4062 47.5833 10.1562 46.5625 8.96875C45.5417 7.78125 44.2396 6.70833 42.6562 5.75C41.0938 4.79167 39.1771 3.98958 36.9062 3.34375C34.6562 2.69792 31.9375 2.26042 28.75 2.03125C28.6458 4.63542 28.5625 7.58333 28.5 10.875C28.4583 14.1458 28.4375 17.7917 28.4375 21.8125C28.4375 25.8542 28.4583 29.5208 28.5 32.8125C28.5625 36.1042 28.6458 39.0521 28.75 41.6562C28.7708 42.1562 28.9688 42.5833 29.3438 42.9375C29.7188 43.2708 30.2292 43.5521 30.875 43.7812C31.5417 44.0104 32.3021 44.1979 33.1562 44.3438C34.0312 44.4688 34.9688 44.5729 35.9688 44.6562C36.0521 45.0104 36.0938 45.2917 36.0938 45.5C36.0938 45.6875 36.0521 45.8958 35.9688 46.125C32.4688 46 28.8438 45.9375 25.0938 45.9375C21.3646 45.9375 17.7396 46 14.2188 46.125C14.1354 45.8958 14.0938 45.6875 14.0938 45.5C14.0938 45.2917 14.1354 45.0104 14.2188 44.6562L15.7188 44.5C16.2604 44.4375 16.8646 44.3542 17.5312 44.25C18.1979 44.125 18.8125 43.9583 19.375 43.75C19.9583 43.5417 20.4479 43.2812 20.8438 42.9688C21.2396 42.6562 21.4375 42.2708 21.4375 41.8125V41.6562C21.5417 37.8438 21.625 34.2917 21.6875 31C21.75 27.7083 21.7812 24.6458 21.7812 21.8125C21.7812 19 21.75 15.9583 21.6875 12.6875C21.625 9.39583 21.5417 5.84375 21.4375 2.03125C18.4375 2.19792 15.8229 2.60417 13.5938 3.25C11.3854 3.875 9.46875 4.66667 7.84375 5.625C6.21875 6.5625 4.86458 7.64583 3.78125 8.875C2.69792 10.0833 1.80208 11.3646 1.09375 12.7188C0.510417 12.4896 0.145833 12.2083 0 11.875L1.40625 9.21875L2.0625 7.875C2.33333 7.3125 2.60417 6.73958 2.875 6.15625C3.14583 5.57292 3.39583 4.96875 3.625 4.34375C3.875 3.69792 4.08333 3.02083 4.25 2.3125C4.41667 1.58333 4.54167 0.8125 4.625 0ZM56.4505 1.1375H88.4505V7.6015H64.0025V20.2095H85.8905V26.6095H64.0025V39.4735H89.2185V45.9375H56.4505V1.1375ZM127.635 45.9375L114.515 28.2095L101.523 45.9375H93.9065L110.163 23.3455L94.3545 1.1375H102.035L114.579 18.3535L127.379 1.1375H134.675L118.739 23.2175L135.507 45.9375H127.635ZM142.058 46.4495C141.332 46.4495 140.82 46.1082 140.522 45.4255C140.223 44.7428 140.074 43.8255 140.074 42.6735C140.074 41.8202 140.138 40.8602 140.266 39.7935L144.298 2.4175H156.202C161.45 2.4175 165.375 3.29217 167.978 5.0415C170.58 6.79083 171.882 9.69216 171.882 13.7455C171.882 16.2202 171.306 18.4815 170.154 20.5295C169.044 22.5775 167.594 24.3482 165.802 25.8415C164.052 27.3348 162.175 28.4868 160.17 29.2975C158.164 30.1082 156.287 30.5135 154.538 30.5135C154.068 30.5135 153.535 30.3642 152.938 30.0655C152.383 29.7668 151.892 29.3828 151.466 28.9135C151.082 28.4442 150.89 27.9748 150.89 27.5055C150.89 27.0362 151.039 26.7162 151.338 26.5455C151.636 26.3322 151.956 26.2042 152.298 26.1615C154.218 25.7775 156.01 25.1162 157.674 24.1775C159.38 23.1962 160.746 21.9162 161.77 20.3375C162.836 18.7162 163.37 16.7962 163.37 14.5775C163.37 12.6575 162.9 11.1642 161.962 10.0975C161.066 9.03083 159.743 8.28416 157.994 7.8575C156.244 7.43083 154.068 7.2175 151.466 7.2175L147.242 46.4495H142.058Z" fill="white"/>
</svg>
